<svg width="110" height="14" viewBox="0 0 110 14" fill="none" xmlns="http://www.w3.org/2000/svg">
<path d="M3.592 1.2H0.33V11H3.592C6.476 11 8.562 8.942 8.562 6.1C8.562 3.272 6.476 1.214 3.592 1.214V1.2ZM3.564 9.852H1.562V2.362H3.564C5.762 2.362 7.316 3.944 7.316 6.1C7.316 8.27 5.762 9.852 3.564 9.852ZM17.5276 7.262C17.5276 5.05 16.0156 3.286 13.7196 3.286C11.5216 3.286 9.86958 4.98 9.86958 7.22C9.86958 9.474 11.5216 11.168 13.7196 11.168C15.3576 11.168 16.6876 10.258 17.3316 8.704H16.0716C15.6096 9.516 14.7696 10.006 13.7196 10.006C12.2916 10.006 11.2416 9.082 11.0596 7.682H17.4996C17.5136 7.542 17.5276 7.402 17.5276 7.262ZM13.7196 4.406C15.0636 4.406 16.0856 5.246 16.3376 6.59H11.0876C11.3256 5.274 12.3476 4.406 13.7196 4.406ZM21.6973 11.168C23.4893 11.168 24.6933 10.258 24.6933 8.844C24.6933 6.996 23.1533 6.744 21.8513 6.534C20.8433 6.38 19.9753 6.226 19.9753 5.428C19.9753 4.77 20.6193 4.35 21.6413 4.35C22.7053 4.35 23.3493 4.798 23.3913 5.624H24.5113C24.4693 4.196 23.3773 3.286 21.6693 3.286C19.9613 3.286 18.8133 4.168 18.8133 5.47C18.8133 7.178 20.2693 7.444 21.5573 7.668C22.5793 7.836 23.5173 8.004 23.5173 8.9C23.5173 9.628 22.7753 10.076 21.7393 10.076C20.6753 10.076 19.9053 9.586 19.8493 8.69H18.6733C18.7433 10.216 19.9053 11.168 21.6973 11.168ZM26.439 2.138H27.727V0.78H26.439V2.138ZM26.481 11H27.671V3.44H26.481V11ZM36.307 3.44L36.125 4.616C35.439 3.79 34.403 3.286 33.185 3.286C31.085 3.286 29.475 4.924 29.475 7.024C29.475 9.138 31.085 10.762 33.185 10.762C34.305 10.762 35.271 10.342 35.943 9.642V10.104C35.943 11.784 34.907 12.778 33.395 12.778C32.303 12.778 31.351 12.246 31.015 11.308H29.825C30.231 12.904 31.547 13.87 33.395 13.87C35.705 13.87 37.105 12.386 37.105 9.95V3.454L36.307 3.44ZM33.311 9.628C31.799 9.628 30.679 8.508 30.679 7.024C30.679 5.54 31.799 4.42 33.311 4.42C34.823 4.42 35.929 5.526 35.929 7.024C35.929 8.522 34.837 9.628 33.311 9.628ZM43.2766 3.286C42.1146 3.286 41.1486 3.79 40.5746 4.63L40.3506 3.44H39.4966V11H40.6866V6.884C40.6866 5.47 41.6806 4.364 42.9826 4.364C44.2846 4.364 45.0126 5.232 45.0126 6.758V11H46.2026V6.478C46.2026 4.63 45.0826 3.286 43.2766 3.286ZM56.1331 3.286C55.0131 3.286 54.0331 3.706 53.3331 4.406V0.751999H52.1431V11H53.0671L53.2351 9.936C53.9351 10.706 54.9571 11.168 56.1331 11.168C58.4151 11.168 60.0391 9.474 60.0391 7.22C60.0391 4.966 58.4151 3.286 56.1331 3.286ZM56.0491 10.02C54.4391 10.02 53.2631 8.802 53.2631 7.22C53.2631 5.638 54.4391 4.434 56.0491 4.434C57.6451 4.434 58.8211 5.624 58.8211 7.22C58.8211 8.83 57.6451 10.02 56.0491 10.02ZM67.1341 3.44L64.6001 9.166L61.9121 3.44H60.6241L63.9841 10.496L63.7181 11.056C63.1021 12.316 62.7521 12.624 61.7301 12.624H61.1281V13.702H61.8421C63.2701 13.702 63.9841 13.114 64.7961 11.322L68.4081 3.44H67.1341ZM73.3045 6.1C73.3045 8.9 75.5445 11.28 78.7645 11.28C81.9845 11.28 84.2245 8.9 84.2245 6.1C84.2245 3.3 81.9845 0.92 78.7645 0.92C75.5445 0.92 73.3045 3.3 73.3045 6.1ZM76.0345 6.1C76.0345 4.42 77.1545 3.3 78.7645 3.3C80.3745 3.3 81.4945 4.42 81.4945 6.1C81.4945 7.78 80.3745 8.9 78.7645 8.9C77.1545 8.9 76.0345 7.78 76.0345 6.1ZM85.409 11H87.789V7.15C87.789 6.17 88.419 5.54 89.189 5.54C89.959 5.54 90.449 6.03 90.449 6.87V11H92.829V6.52C92.829 4.56 91.779 3.51 90.099 3.51C88.559 3.51 87.929 4.7 87.929 4.7H87.789V3.72H85.409V11ZM94.159 11H98.149V9.11H96.539V1.2H94.159V11ZM98.1517 3.72L100.042 11H101.652L100.882 13.66H103.332L106.132 3.72H103.682L102.282 8.97H101.862L100.602 3.72H98.1517ZM106.778 11H109.312V8.592H106.778V11Z" fill="white"/>
</svg>
