<svg xmlns="http://www.w3.org/2000/svg" width="24" height="25" fill="none"><path opacity=".8" d="M11.992 23.905h-.001a11.28 11.28 0 0 1-4.399-.881A11.45 11.45 0 0 1 3.86 20.49a11.69 11.69 0 0 1-2.492-3.801C.79 15.267.496 13.743.5 12.204v-.001c0-2.316.675-4.58 1.94-6.505A11.54 11.54 0 0 1 7.597 1.39a11.3 11.3 0 0 1 6.635-.665 11.43 11.43 0 0 1 5.883 3.2 11.77 11.77 0 0 1 3.148 5.993 11.9 11.9 0 0 1-.655 6.766 11.66 11.66 0 0 1-4.235 5.251c-1.9 1.285-4.1 1.97-6.38 1.97z" fill="url(#A)" stroke="#ffce35"/><path d="M11.842 19.155c1.35 0 2.668-.4 3.8-1.18s1.996-1.863 2.512-3.142a7.17 7.17 0 0 0 .388-4.045 7.06 7.06 0 0 0-1.867-3.584 6.77 6.77 0 0 0-3.493-1.916 6.66 6.66 0 0 0-3.941.398c-1.246.53-2.312 1.427-3.06 2.578s-1.15 2.505-1.15 3.89a7.14 7.14 0 0 0 .514 2.682 7 7 0 0 0 1.478 2.274c.634.65 1.387 1.166 2.215 1.517s1.717.53 2.613.528z" fill="#ffce35"/><defs><radialGradient id="A" cx="0" cy="0" r="1" gradientUnits="userSpaceOnUse" gradientTransform="translate(11.9921 12.2027) rotate(90) scale(12.2027 11.9921)"><stop stop-color="#ffcb05" stop-opacity="0"/><stop offset="1" stop-color="#ffcb05" stop-opacity=".33"/></radialGradient></defs></svg>